<svg width="327" height="327" viewBox="0 0 327 327" fill="none" xmlns="http://www.w3.org/2000/svg">
<rect width="327" height="327" fill="#054CFF"/>
<path d="M258.375 202.131C258.375 183.484 252.096 170.098 239.65 162.051C238.098 102.952 213.792 75.3611 163.5 75.3611C113.208 75.3611 88.8938 102.952 87.3499 162.051C74.904 170.098 68.625 183.484 68.625 202.131C68.625 234.725 87.7984 251.259 125.602 251.259C131.165 251.259 136.107 247.706 137.866 242.436C146.569 216.44 146.569 187.823 137.866 161.827C136.098 156.557 131.165 153.003 125.602 153.003C121.393 153.003 117.417 153.21 113.665 153.616C117.382 105.566 140.187 101.236 163.5 101.236C186.813 101.236 209.618 105.566 213.335 153.616C209.592 153.21 205.607 153.003 201.398 153.003C195.835 153.003 190.893 156.557 189.134 161.827C182.259 182.354 180.819 204.538 184.812 225.772C178.326 225.747 172.073 225.496 166.105 225.022C158.955 224.496 152.745 229.766 152.184 236.89C151.615 244.014 156.928 250.25 164.052 250.811C171.056 251.363 178.395 251.656 185.985 251.656C191.117 251.656 196.361 251.527 201.7 251.268C239.314 251.182 258.384 234.656 258.384 202.14L258.375 202.131Z" fill="white"/>
</svg>
